<svg xmlns="http://www.w3.org/2000/svg" id="canvas" viewBox="288.044 317.506 1361.389 295.330"><path d="M 295.60,444.33 C 297.62 443.73, 298.39 441.80, 301.14 438.13 C 303.90 434.47, 305.39 431.83, 309.38 426.02 C 313.37 420.21, 316.00 416.33, 321.09 409.06 C 326.19 401.80, 329.27 397.49, 334.85 389.68 C 340.44 381.86, 343.47 377.57, 349.01 370.00 C 354.54 362.43, 357.47 358.34, 362.54 351.83 C 367.62 345.32, 370.20 342.05, 374.38 337.46 C 378.57 332.86, 381.01 330.86, 383.47 328.86 C 385.93 326.86, 385.31 326.50, 386.68 327.45 C 388.05 328.40, 388.70 328.93, 390.32 333.61 C 391.93 338.29, 393.09 342.15, 394.75 350.85 C 396.41 359.56, 397.20 365.32, 398.61 377.15 C 400.01 388.98, 400.69 396.10, 401.77 409.99 C 402.86 423.88, 403.36 431.76, 404.05 446.60 C 404.74 461.43, 405.14 469.49, 405.23 484.17 C 405.31 498.85, 405.39 506.47, 404.48 520.00 C 403.58 533.53, 402.92 540.35, 400.71 551.81 C 398.49 563.26, 396.99 568.70, 393.40 577.29 C 389.82 585.89, 387.42 589.59, 382.78 594.78 C 378.15 599.97, 375.35 601.55, 370.21 603.24 C 365.06 604.94, 362.20 604.83, 357.07 603.25 C 351.93 601.66, 349.05 599.83, 344.54 595.32 C 340.04 590.80, 337.51 587.46, 334.53 580.66 C 331.55 573.87, 330.29 569.54, 329.65 561.34 C 329.00 553.14, 329.18 548.43, 331.32 539.65 C 333.46 530.87, 335.48 526.09, 340.34 517.44 C 345.20 508.80, 348.56 504.34, 355.63 496.43 C 362.70 488.52, 367.15 484.51, 375.68 477.90 C 384.20 471.29, 389.22 468.12, 398.26 463.36 C 407.29 458.60, 412.33 456.59, 420.86 454.12 C 429.39 451.65, 433.83 450.92, 440.91 451.01 C 448.00 451.10, 451.18 451.85, 456.29 454.56 C 461.40 457.27, 463.32 459.32, 466.46 464.56 C 469.59 469.80, 470.57 473.37, 471.98 480.77 C 473.38 488.17, 473.42 493.12, 473.47 501.56 C 473.52 510.00, 472.90 515.26, 472.23 522.96 C 471.56 530.66, 470.32 534.75, 470.12 540.06 C 469.92 545.38, 469.49 548.03, 471.23 549.53 C 472.97 551.03, 476.60 550.09, 478.80 547.57 C 480.99 545.04, 481.32 541.32, 482.21 536.92 C 483.10 532.52, 484.85 528.17, 483.23 525.57 C 481.62 522.96, 476.55 522.08, 474.12 523.89 C 471.68 525.70, 471.96 530.40, 471.07 534.63 C 470.19 538.86, 468.98 542.16, 469.68 545.06 C 470.39 547.95, 473.16 549.99, 474.59 549.10 C 476.02 548.21, 476.18 545.76, 476.82 540.60 C 477.47 535.45, 477.44 531.15, 477.81 523.33 C 478.17 515.51, 478.81 510.21, 478.66 501.50 C 478.52 492.79, 478.64 487.72, 477.09 479.79 C 475.55 471.85, 474.63 467.77, 470.94 461.82 C 467.25 455.88, 464.63 453.16, 458.63 450.07 C 452.63 446.98, 448.73 446.37, 440.94 446.39 C 433.14 446.40, 428.57 447.42, 419.67 450.14 C 410.78 452.85, 405.71 455.01, 396.45 459.97 C 387.20 464.93, 382.12 468.16, 373.39 474.95 C 364.65 481.73, 360.10 485.78, 352.80 493.89 C 345.49 501.99, 341.99 506.52, 336.86 515.46 C 331.72 524.40, 329.52 529.36, 327.13 538.60 C 324.74 547.84, 324.40 552.84, 324.91 561.66 C 325.42 570.48, 326.57 575.20, 329.70 582.72 C 332.84 590.25, 335.41 594.10, 340.57 599.28 C 345.73 604.46, 349.23 606.85, 355.49 608.61 C 361.75 610.37, 365.76 610.27, 371.88 608.08 C 378.00 605.89, 381.10 603.54, 386.09 597.65 C 391.08 591.77, 393.27 587.72, 396.81 578.67 C 400.36 569.62, 401.72 564.09, 403.83 552.39 C 405.93 540.69, 406.52 533.83, 407.36 520.18 C 408.19 506.54, 408.09 498.90, 408.01 484.15 C 407.92 469.41, 407.52 461.35, 406.92 446.47 C 406.31 431.60, 405.85 423.71, 404.97 409.77 C 404.08 395.82, 403.53 388.70, 402.51 376.75 C 401.48 364.80, 401.04 359.08, 399.83 350.03 C 398.62 340.98, 398.43 337.25, 396.47 331.50 C 394.52 325.75, 393.43 322.93, 390.05 321.28 C 386.67 319.63, 383.56 320.77, 379.57 323.26 C 375.58 325.76, 374.25 328.63, 370.08 333.77 C 365.92 338.91, 363.69 342.24, 358.76 348.97 C 353.83 355.69, 350.95 359.79, 345.43 367.39 C 339.90 374.98, 336.86 379.26, 331.13 386.97 C 325.41 394.67, 322.19 398.87, 316.80 405.92 C 311.40 412.97, 308.53 416.65, 304.18 422.21 C 299.83 427.77, 297.67 429.94, 295.05 433.73 C 292.42 437.52, 290.94 439.02, 291.05 441.14 C 291.16 443.27, 293.58 444.93, 295.60 444.33" style="stroke: black; fill: black;"/><path d="M 486.69,395.55 C 488.74 395.89, 489.86 396.07, 489.86 395.81 C 489.85 395.55, 488.49 395.07, 486.67 394.26 C 484.84 393.45, 482.69 392.24, 480.72 391.76 C 478.76 391.28, 477.06 391.40, 476.83 391.87 C 476.61 392.34, 477.63 393.38, 479.60 394.11 C 481.57 394.85, 484.63 395.21, 486.69 395.55" style="stroke: black; fill: black;"/><path d="M 512.35,458.44 C 511.29 460.23, 512.08 462.02, 512.51 466.44 C 512.94 470.86, 513.64 473.92, 514.48 480.54 C 515.33 487.17, 515.87 491.87, 516.75 499.56 C 517.63 507.25, 517.99 511.95, 518.88 519.00 C 519.77 526.04, 519.44 529.93, 521.19 534.77 C 522.95 539.61, 524.49 542.42, 527.64 543.19 C 530.78 543.95, 533.44 542.55, 536.93 538.60 C 540.42 534.64, 541.49 530.71, 545.07 523.40 C 548.65 516.09, 550.82 510.45, 554.85 502.06 C 558.87 493.67, 561.42 488.11, 565.20 481.45 C 568.97 474.79, 571.64 471.59, 573.74 468.76 C 575.83 465.93, 574.77 465.69, 575.67 467.30 C 576.56 468.91, 577.26 470.96, 578.20 476.81 C 579.14 482.66, 579.41 487.94, 580.38 496.55 C 581.34 505.15, 581.59 511.13, 583.03 519.83 C 584.46 528.54, 584.89 533.55, 587.57 540.06 C 590.25 546.58, 591.96 550.08, 596.43 552.41 C 600.90 554.74, 604.43 554.60, 609.91 551.70 C 615.39 548.81, 618.07 545.45, 623.83 537.93 C 629.59 530.41, 632.73 525.33, 638.74 514.10 C 644.74 502.87, 648.10 495.66, 653.84 481.78 C 659.59 467.91, 662.54 459.42, 667.46 444.73 C 672.38 430.05, 674.81 421.76, 678.44 408.38 C 682.07 394.99, 683.51 388.17, 685.62 377.80 C 687.72 367.44, 688.82 362.90, 688.95 356.54 C 689.08 350.17, 688.33 347.12, 686.26 345.98 C 684.19 344.85, 681.19 345.93, 678.59 350.86 C 675.98 355.79, 675.36 360.35, 673.24 370.64 C 671.12 380.94, 669.89 388.24, 667.99 402.33 C 666.09 416.42, 665.05 425.58, 663.75 441.09 C 662.44 456.60, 661.95 465.81, 661.48 479.89 C 661.00 493.97, 660.82 501.13, 661.35 511.48 C 661.89 521.83, 661.91 526.12, 664.16 531.63 C 666.40 537.13, 668.87 539.35, 672.58 539.01 C 676.29 538.66, 678.54 535.46, 682.72 529.91 C 686.89 524.37, 689.06 519.60, 693.44 511.28 C 697.83 502.97, 700.32 496.97, 704.63 488.34 C 708.94 479.70, 711.37 474.23, 714.99 468.11 C 718.62 461.99, 721.09 459.80, 722.75 457.72 C 724.42 455.65, 722.79 455.74, 723.32 457.72 C 723.85 459.70, 724.55 461.93, 725.40 467.63 C 726.26 473.32, 726.46 478.30, 727.58 486.22 C 728.71 494.13, 729.19 499.38, 731.02 507.19 C 732.85 515.00, 733.64 519.41, 736.73 525.27 C 739.82 531.13, 741.70 534.17, 746.47 536.51 C 751.23 538.84, 754.76 538.85, 760.55 536.96 C 766.35 535.07, 769.42 532.58, 775.44 527.05 C 781.47 521.51, 784.65 517.19, 790.68 509.27 C 796.71 501.35, 800.02 495.94, 805.59 487.44 C 811.16 478.94, 814.18 473.93, 818.54 466.77 C 822.90 459.61, 825.20 456.44, 827.40 451.63 C 829.61 446.83, 830.60 445.07, 829.57 442.75 C 828.55 440.43, 825.34 438.91, 822.26 440.03 C 819.19 441.16, 817.65 443.73, 814.19 448.39 C 810.74 453.05, 808.63 456.45, 804.99 463.32 C 801.35 470.19, 799.12 474.75, 795.97 482.74 C 792.83 490.74, 791.14 495.55, 789.27 503.29 C 787.40 511.02, 786.67 515.17, 786.62 521.42 C 786.56 527.67, 786.52 530.96, 789.00 534.55 C 791.47 538.14, 794.91 539.86, 799.02 539.36 C 803.12 538.86, 805.49 536.54, 809.54 532.04 C 813.58 527.55, 815.53 524.03, 819.24 516.90 C 822.95 509.78, 824.94 504.86, 828.10 496.42 C 831.27 487.98, 832.83 482.36, 835.07 474.72 C 837.32 467.09, 838.88 462.82, 839.32 458.24 C 839.76 453.65, 838.49 451.96, 837.27 451.82 C 836.05 451.67, 833.97 453.32, 833.20 457.51 C 832.43 461.70, 832.78 465.86, 833.43 472.78 C 834.08 479.69, 834.67 484.79, 836.44 492.09 C 838.21 499.40, 839.27 503.58, 842.29 509.30 C 845.31 515.02, 847.14 517.86, 851.56 520.68 C 855.98 523.50, 859.20 524.33, 864.39 523.40 C 869.58 522.47, 872.37 520.49, 877.51 516.02 C 882.64 511.55, 885.19 507.92, 890.07 501.04 C 894.95 494.16, 897.52 489.23, 901.90 481.62 C 906.28 474.01, 908.70 468.72, 911.98 463.00 C 915.26 457.28, 917.35 454.93, 918.30 453.01 C 919.25 451.10, 916.80 450.83, 916.74 453.42 C 916.69 456.01, 917.59 459.47, 918.04 465.95 C 918.50 472.43, 918.35 477.92, 919.02 485.81 C 919.69 493.71, 919.91 498.68, 921.39 505.44 C 922.87 512.20, 923.33 515.61, 926.42 519.63 C 929.50 523.66, 932.28 525.47, 936.83 525.57 C 941.37 525.67, 944.18 523.86, 949.15 520.11 C 954.12 516.37, 956.56 512.90, 961.67 506.84 C 966.78 500.77, 969.68 496.32, 974.68 489.78 C 979.68 483.24, 982.61 478.89, 986.68 474.13 C 990.75 469.38, 993.02 467.59, 995.02 466.02 C 997.02 464.44, 995.79 464.40, 996.69 466.24 C 997.59 468.09, 998.39 470.02, 999.53 475.23 C 1000.68 480.45, 1000.97 485.06, 1002.43 492.30 C 1003.89 499.54, 1004.53 504.28, 1006.84 511.42 C 1009.15 518.56, 1010.34 522.53, 1013.98 527.98 C 1017.63 533.44, 1019.90 536.21, 1025.07 538.69 C 1030.25 541.17, 1034.15 540.90, 1039.85 540.39 C 1045.55 539.88, 1048.97 538.27, 1053.57 536.15 C 1058.18 534.03, 1061.62 532.11, 1062.87 529.79 C 1064.11 527.47, 1062.27 524.69, 1059.79 524.56 C 1057.31 524.42, 1054.64 527.38, 1050.48 529.13 C 1046.32 530.87, 1043.52 532.52, 1038.97 533.27 C 1034.42 534.02, 1031.72 534.61, 1027.73 532.89 C 1023.75 531.17, 1022.03 529.32, 1019.04 524.66 C 1016.04 520.00, 1014.73 516.31, 1012.76 509.59 C 1010.78 502.87, 1010.39 498.24, 1009.17 491.05 C 1007.95 483.85, 1008.04 479.50, 1006.65 473.61 C 1005.25 467.71, 1005.18 464.28, 1002.20 461.56 C 999.22 458.84, 995.83 458.29, 991.76 460.00 C 987.70 461.70, 986.23 464.85, 981.88 470.09 C 977.53 475.33, 974.98 479.67, 970.00 486.21 C 965.02 492.76, 961.96 497.10, 956.97 502.81 C 951.99 508.53, 949.11 511.62, 945.06 514.79 C 941.01 517.97, 939.37 518.48, 936.73 518.68 C 934.09 518.88, 933.67 518.70, 931.87 515.79 C 930.07 512.88, 928.93 510.22, 927.74 504.12 C 926.54 498.02, 926.45 493.02, 925.90 485.28 C 925.36 477.54, 925.56 472.25, 925.01 465.43 C 924.46 458.60, 925.36 454.62, 923.16 451.14 C 920.96 447.67, 917.30 446.27, 914.00 448.05 C 910.69 449.82, 910.00 453.83, 906.63 460.01 C 903.25 466.18, 901.35 471.36, 897.12 478.91 C 892.89 486.45, 890.23 491.27, 885.49 497.75 C 880.75 504.22, 877.91 507.48, 873.43 511.30 C 868.96 515.12, 866.77 516.08, 863.13 516.85 C 859.49 517.62, 858.24 517.24, 855.23 515.14 C 852.22 513.04, 850.49 511.26, 848.09 506.34 C 845.68 501.43, 844.61 497.41, 843.21 490.57 C 841.81 483.74, 841.55 478.77, 841.10 472.15 C 840.65 465.54, 841.72 461.68, 840.96 457.51 C 840.19 453.34, 838.89 451.44, 837.27 451.29 C 835.64 451.15, 834.38 452.42, 832.83 456.79 C 831.28 461.17, 831.49 465.64, 829.52 473.18 C 827.55 480.72, 826.12 486.32, 822.98 494.47 C 819.84 502.62, 817.57 507.39, 813.81 513.94 C 810.06 520.49, 807.49 523.64, 804.22 527.22 C 800.95 530.81, 799.27 531.13, 797.46 531.85 C 795.65 532.58, 796.10 532.94, 795.18 530.85 C 794.26 528.75, 792.97 526.65, 792.86 521.39 C 792.75 516.13, 792.99 511.86, 794.64 504.55 C 796.30 497.24, 797.90 492.43, 801.13 484.86 C 804.37 477.28, 806.91 472.95, 810.81 466.65 C 814.71 460.36, 817.33 457.46, 820.64 453.40 C 823.96 449.35, 826.35 448.54, 827.36 446.39 C 828.37 444.24, 826.79 442.15, 825.69 442.65 C 824.59 443.15, 824.13 444.57, 821.85 448.90 C 819.57 453.23, 818.29 457.08, 814.28 464.29 C 810.27 471.50, 807.27 476.55, 801.79 484.96 C 796.32 493.37, 792.88 498.72, 786.89 506.34 C 780.90 513.96, 777.49 518.05, 771.84 523.06 C 766.19 528.06, 763.19 529.76, 758.66 531.37 C 754.13 532.98, 752.53 532.87, 749.19 531.11 C 745.86 529.36, 744.46 527.63, 741.98 522.59 C 739.49 517.55, 738.37 513.34, 736.79 505.90 C 735.20 498.46, 734.96 493.25, 734.04 485.38 C 733.13 477.51, 733.25 472.84, 732.22 466.55 C 731.18 460.27, 731.54 456.67, 728.87 453.95 C 726.20 451.23, 722.61 450.66, 718.88 452.94 C 715.16 455.22, 714.01 458.74, 710.24 465.36 C 706.48 471.98, 704.37 477.38, 700.05 486.05 C 695.72 494.72, 693.00 500.60, 688.62 508.71 C 684.23 516.82, 681.51 521.59, 678.11 526.61 C 674.71 531.62, 673.57 533.09, 671.61 533.79 C 669.66 534.50, 669.69 534.64, 668.35 530.13 C 667.01 525.62, 665.68 521.28, 664.91 511.25 C 664.14 501.22, 664.14 493.96, 664.51 479.98 C 664.88 466.00, 665.36 456.78, 666.76 441.35 C 668.17 425.92, 669.35 416.79, 671.54 402.85 C 673.72 388.91, 675.28 381.62, 677.70 371.64 C 680.12 361.66, 682.29 357.64, 683.65 352.94 C 685.00 348.25, 684.33 347.49, 684.48 348.17 C 684.62 348.84, 684.83 350.52, 684.37 356.32 C 683.91 362.12, 683.93 366.90, 682.17 377.16 C 680.42 387.42, 679.07 394.28, 675.59 407.62 C 672.11 420.95, 669.68 429.23, 664.77 443.83 C 659.86 458.43, 656.87 466.90, 651.02 480.59 C 645.16 494.29, 641.66 501.42, 635.50 512.32 C 629.34 523.22, 625.86 528.14, 620.22 535.07 C 614.58 542.01, 611.51 544.52, 607.30 546.99 C 603.10 549.47, 602.10 549.26, 599.19 547.47 C 596.28 545.67, 594.89 543.72, 592.74 538.02 C 590.60 532.32, 589.75 527.38, 588.47 518.97 C 587.19 510.55, 587.14 504.58, 586.33 495.93 C 585.51 487.28, 585.66 482.31, 584.39 475.71 C 583.13 469.11, 582.98 465.20, 580.00 462.95 C 577.02 460.70, 573.45 461.32, 569.50 464.46 C 565.54 467.61, 564.19 471.64, 560.25 478.66 C 556.30 485.69, 553.93 491.21, 549.78 499.59 C 545.64 507.97, 543.20 513.60, 539.52 520.57 C 535.84 527.55, 533.48 530.94, 531.38 534.46 C 529.29 537.98, 529.74 538.50, 529.06 538.18 C 528.38 537.85, 528.76 536.84, 527.99 532.83 C 527.22 528.83, 526.20 524.93, 525.22 518.14 C 524.24 511.35, 523.84 506.56, 523.09 498.89 C 522.35 491.22, 522.06 486.50, 521.51 479.80 C 520.95 473.11, 521.05 469.86, 520.31 465.41 C 519.57 460.95, 519.39 458.92, 517.80 457.52 C 516.20 456.13, 513.40 456.66, 512.35 458.44" style="stroke: black; fill: black;"/><path d="M 1167.86,335.87 C 1166.88 337.47, 1167.52 338.55, 1167.93 343.23 C 1168.34 347.90, 1169.21 350.78, 1169.92 359.23 C 1170.63 367.68, 1171.07 373.29, 1171.50 385.48 C 1171.92 397.66, 1171.92 405.40, 1172.05 420.16 C 1172.19 434.93, 1172.17 443.78, 1172.16 459.29 C 1172.15 474.80, 1171.96 483.63, 1172.02 497.71 C 1172.09 511.78, 1171.81 519.56, 1172.48 529.68 C 1173.14 539.80, 1172.96 544.76, 1175.35 548.33 C 1177.75 551.90, 1181.06 551.89, 1184.44 547.55 C 1187.83 543.22, 1188.65 537.90, 1192.28 526.66 C 1195.91 515.42, 1197.98 506.96, 1202.59 491.36 C 1207.19 475.76, 1209.82 465.67, 1215.29 448.65 C 1220.77 431.64, 1224.01 421.93, 1229.96 406.29 C 1235.90 390.64, 1239.36 382.76, 1245.02 370.43 C 1250.69 358.10, 1253.73 352.50, 1258.28 344.62 C 1262.84 336.74, 1265.68 334.31, 1267.80 331.04 C 1269.91 327.77, 1269.01 327.20, 1268.87 328.27 C 1268.74 329.33, 1268.27 330.78, 1267.11 336.37 C 1265.96 341.95, 1265.45 346.56, 1263.10 356.17 C 1260.76 365.78, 1259.03 372.13, 1255.39 384.41 C 1251.75 396.70, 1249.28 404.24, 1244.90 417.60 C 1240.53 430.97, 1237.84 438.54, 1233.52 451.25 C 1229.20 463.96, 1226.71 470.65, 1223.31 481.15 C 1219.91 491.65, 1218.16 496.38, 1216.53 503.74 C 1214.90 511.11, 1213.75 514.05, 1215.16 517.97 C 1216.56 521.89, 1219.41 523.58, 1223.55 523.36 C 1227.68 523.15, 1230.14 520.90, 1235.83 516.90 C 1241.52 512.90, 1244.92 509.65, 1252.01 503.36 C 1259.09 497.08, 1263.37 492.68, 1271.26 485.46 C 1279.14 478.24, 1283.65 473.88, 1291.44 467.26 C 1299.23 460.63, 1303.75 456.85, 1310.21 452.32 C 1316.67 447.79, 1320.25 446.02, 1323.76 444.60 C 1327.26 443.19, 1326.82 443.17, 1327.73 445.25 C 1328.64 447.33, 1328.87 449.32, 1328.33 455.01 C 1327.79 460.70, 1326.67 465.57, 1325.05 473.71 C 1323.43 481.85, 1321.91 487.35, 1320.22 495.71 C 1318.54 504.08, 1317.23 508.78, 1316.62 515.54 C 1316.00 522.29, 1315.08 526.00, 1317.14 529.49 C 1319.20 532.97, 1322.83 534.20, 1326.92 532.96 C 1331.01 531.72, 1332.89 528.88, 1337.58 523.28 C 1342.28 517.68, 1345.03 513.17, 1350.42 504.96 C 1355.81 496.75, 1358.84 491.05, 1364.54 482.23 C 1370.23 473.42, 1373.86 467.70, 1378.91 460.88 C 1383.96 454.06, 1387.09 450.92, 1389.78 448.12 C 1392.48 445.32, 1391.68 445.29, 1392.39 446.90 C 1393.10 448.50, 1393.38 450.53, 1393.34 456.14 C 1393.31 461.75, 1392.76 466.95, 1392.22 474.95 C 1391.68 482.95, 1391.02 488.44, 1390.64 496.14 C 1390.25 503.83, 1389.50 507.85, 1390.29 513.43 C 1391.08 519.01, 1391.62 522.18, 1394.59 524.04 C 1397.57 525.91, 1400.86 525.48, 1405.18 522.75 C 1409.49 520.02, 1411.41 516.63, 1416.18 510.40 C 1420.96 504.16, 1423.76 499.43, 1429.04 491.59 C 1434.33 483.76, 1437.49 478.47, 1442.61 471.21 C 1447.73 463.95, 1450.79 459.87, 1454.63 455.28 C 1458.47 450.70, 1460.61 449.59, 1461.82 448.29 C 1463.04 446.99, 1460.91 446.61, 1460.72 448.79 C 1460.54 450.97, 1461.09 453.68, 1460.89 459.20 C 1460.69 464.72, 1460.09 469.23, 1459.72 476.38 C 1459.36 483.53, 1458.89 488.23, 1459.08 494.96 C 1459.27 501.68, 1458.88 505.23, 1460.67 509.99 C 1462.47 514.76, 1464.21 517.65, 1468.05 518.78 C 1471.89 519.92, 1474.93 518.65, 1479.87 515.66 C 1484.80 512.68, 1487.29 509.57, 1492.73 503.84 C 1498.17 498.12, 1501.38 493.79, 1507.08 487.05 C 1512.77 480.31, 1516.24 475.68, 1521.21 470.16 C 1526.18 464.64, 1529.25 462.01, 1531.93 459.45 C 1534.61 456.89, 1534.05 456.42, 1534.61 457.37 C 1535.16 458.33, 1534.79 459.63, 1534.71 464.21 C 1534.63 468.79, 1534.22 473.15, 1534.21 480.26 C 1534.20 487.37, 1533.69 492.35, 1534.65 499.76 C 1535.62 507.16, 1535.79 511.76, 1539.05 517.28 C 1542.30 522.81, 1544.99 525.73, 1550.93 527.37 C 1556.87 529.01, 1561.06 528.43, 1568.74 525.48 C 1576.43 522.53, 1581.01 519.59, 1589.36 512.62 C 1597.72 505.64, 1602.59 500.49, 1610.52 490.63 C 1618.45 480.76, 1622.82 474.23, 1629.01 463.28 C 1635.19 452.33, 1637.96 445.48, 1641.44 435.87 C 1644.92 426.25, 1646.09 419.51, 1646.40 415.22 C 1646.72 410.93, 1644.64 410.51, 1643.00 414.41 C 1641.36 418.30, 1641.63 425.27, 1638.21 434.70 C 1634.80 444.12, 1632.03 450.80, 1625.92 461.52 C 1619.81 472.25, 1615.50 478.74, 1607.66 488.31 C 1599.82 497.87, 1594.83 502.84, 1586.70 509.36 C 1578.57 515.89, 1573.88 518.38, 1567.02 520.93 C 1560.16 523.48, 1556.95 523.40, 1552.40 522.10 C 1547.86 520.81, 1546.53 519.05, 1544.28 514.44 C 1542.03 509.83, 1541.73 505.87, 1541.15 499.05 C 1540.58 492.23, 1541.23 487.41, 1541.40 480.35 C 1541.57 473.30, 1542.65 469.23, 1542.01 463.80 C 1541.36 458.36, 1540.97 455.10, 1538.18 453.19 C 1535.39 451.29, 1532.34 451.64, 1528.06 454.25 C 1523.79 456.87, 1521.87 460.45, 1516.81 466.27 C 1511.75 472.09, 1508.46 476.72, 1502.75 483.36 C 1497.04 490.00, 1493.58 494.19, 1488.26 499.47 C 1482.93 504.75, 1479.79 507.33, 1476.14 509.78 C 1472.49 512.22, 1471.71 512.10, 1470.00 511.70 C 1468.29 511.31, 1468.39 511.18, 1467.61 507.80 C 1466.83 504.42, 1466.20 501.00, 1466.11 494.80 C 1466.01 488.61, 1466.61 483.90, 1467.11 476.83 C 1467.62 469.76, 1468.46 465.49, 1468.61 459.43 C 1468.77 453.38, 1469.80 449.95, 1467.89 446.56 C 1465.98 443.18, 1462.61 441.53, 1459.05 442.53 C 1455.49 443.53, 1454.23 446.42, 1450.09 451.56 C 1445.96 456.71, 1443.47 460.86, 1438.37 468.25 C 1433.27 475.64, 1429.99 480.85, 1424.58 488.51 C 1419.17 496.17, 1416.03 500.80, 1411.33 506.55 C 1406.62 512.31, 1403.69 514.73, 1401.03 517.28 C 1398.38 519.83, 1398.87 520.20, 1398.05 519.29 C 1397.23 518.39, 1397.15 517.34, 1396.93 512.77 C 1396.71 508.20, 1396.58 503.92, 1396.94 496.44 C 1397.29 488.97, 1398.14 483.50, 1398.71 475.40 C 1399.28 467.30, 1400.18 462.39, 1399.79 455.95 C 1399.40 449.51, 1399.47 445.62, 1396.77 443.19 C 1394.06 440.77, 1390.65 440.86, 1386.28 443.81 C 1381.91 446.77, 1380.04 450.80, 1374.91 457.98 C 1369.78 465.15, 1366.41 470.89, 1360.64 479.70 C 1354.88 488.51, 1351.62 494.11, 1346.08 502.03 C 1340.54 509.94, 1337.34 514.32, 1332.95 519.29 C 1328.56 524.26, 1326.06 525.35, 1324.12 526.88 C 1322.19 528.41, 1323.57 529.10, 1323.28 526.94 C 1323.00 524.78, 1322.21 522.09, 1322.71 516.07 C 1323.22 510.05, 1324.15 505.06, 1325.79 496.83 C 1327.44 488.60, 1329.18 483.20, 1330.94 474.93 C 1332.71 466.66, 1334.20 462.08, 1334.59 455.49 C 1334.99 448.89, 1335.41 445.18, 1332.91 441.93 C 1330.40 438.69, 1327.18 437.96, 1322.08 439.26 C 1316.97 440.56, 1314.08 443.48, 1307.40 448.43 C 1300.72 453.38, 1296.50 457.28, 1288.68 464.03 C 1280.86 470.78, 1276.34 475.13, 1268.32 482.19 C 1260.30 489.26, 1255.79 493.44, 1248.59 499.36 C 1241.39 505.28, 1237.54 508.26, 1232.30 511.79 C 1227.07 515.32, 1224.75 516.07, 1222.41 517.02 C 1220.07 517.96, 1220.91 519.00, 1220.61 516.52 C 1220.31 514.04, 1219.69 511.48, 1220.90 504.62 C 1222.12 497.75, 1223.55 492.67, 1226.67 482.20 C 1229.79 471.73, 1232.25 464.97, 1236.51 452.25 C 1240.76 439.54, 1243.46 431.96, 1247.95 418.62 C 1252.45 405.27, 1255.00 397.76, 1258.98 385.53 C 1262.96 373.30, 1265.04 367.08, 1267.85 357.45 C 1270.66 347.81, 1272.19 343.56, 1273.03 337.37 C 1273.87 331.18, 1273.85 328.38, 1272.05 326.49 C 1270.26 324.59, 1267.44 324.61, 1264.05 327.89 C 1260.66 331.17, 1259.43 334.60, 1255.12 342.88 C 1250.80 351.16, 1247.98 356.78, 1242.47 369.28 C 1236.97 381.79, 1233.54 389.69, 1227.61 405.40 C 1221.68 421.11, 1218.43 430.84, 1212.81 447.85 C 1207.20 464.85, 1204.38 474.92, 1199.55 490.44 C 1194.71 505.96, 1192.38 514.48, 1188.63 525.45 C 1184.88 536.42, 1182.70 541.10, 1180.80 545.30 C 1178.91 549.50, 1180.07 549.65, 1179.14 546.47 C 1178.20 543.29, 1176.96 539.16, 1176.14 529.41 C 1175.32 519.65, 1175.25 511.70, 1175.03 497.68 C 1174.81 483.65, 1174.99 474.80, 1175.02 459.30 C 1175.06 443.79, 1175.12 434.93, 1175.20 420.16 C 1175.29 405.38, 1175.43 397.65, 1175.43 385.41 C 1175.43 373.17, 1175.35 367.53, 1175.21 358.96 C 1175.06 350.40, 1175.17 347.34, 1174.69 342.59 C 1174.21 337.84, 1174.18 336.56, 1172.81 335.21 C 1171.45 333.87, 1168.84 334.26, 1167.86 335.87" style="stroke: black; fill: black;"/></svg>